<?xml version="1.0" encoding="UTF-8"?>
<svg version="1.1" xmlns="http://www.w3.org/2000/svg" width="1254" height="1254">
<path d="M0 0 C413.82 0 827.64 0 1254 0 C1254 413.82 1254 827.64 1254 1254 C840.18 1254 426.36 1254 0 1254 C0 840.18 0 426.36 0 0 Z " fill="#FDFDFD" transform="translate(0,0)"/>
<path d="M0 0 C1.00450195 -0.03673828 1.00450195 -0.03673828 2.02929688 -0.07421875 C12.06982639 -0.1317576 20.20101004 5.93887319 28.4375 11.0625 C30.49848011 12.33108309 32.5596776 13.59931309 34.62109375 14.8671875 C35.60835449 15.4765918 36.59561523 16.08599609 37.61279297 16.71386719 C40.89300893 18.73218781 44.19232804 20.71450269 47.5 22.6875 C54.58519603 26.9209148 61.6350847 31.21230796 68.6875 35.5 C78.7324126 41.6066821 88.79802485 47.67723845 98.88525391 53.71386719 C104.29462284 56.95420446 109.69446455 60.20930931 115.078125 63.4921875 C115.64975372 63.84068756 116.22138245 64.18918762 116.81033325 64.54824829 C117.38548676 64.8989035 117.96064026 65.24955872 118.55322266 65.61083984 C130.07252954 72.6334573 141.65180284 79.5392233 153.30395508 86.3392334 C161.13171534 90.90827316 168.9221143 95.52695405 176.64013672 100.27929688 C191.57386802 109.4724756 206.66035275 118.41616543 221.77441406 127.30883789 C227.01070616 130.39851402 232.22373125 133.5239083 237.41796875 136.68359375 C238.0308223 137.05639465 238.64367584 137.42919556 239.27510071 137.81329346 C242.26737732 139.63482648 245.25761801 141.45961573 248.24536133 143.28857422 C254.52886063 147.12327266 260.85467791 150.85969354 267.25531006 154.49375916 C272.56644581 157.51023678 277.82441056 160.60877814 283.0625 163.75 C283.93648437 164.26949219 284.81046875 164.78898438 285.7109375 165.32421875 C286.96003906 166.07251953 286.96003906 166.07251953 288.234375 166.8359375 C288.97268555 167.27728027 289.71099609 167.71862305 290.47167969 168.17333984 C292.3125 169.375 292.3125 169.375 294.3125 171.375 C294.77734375 174.265625 294.77734375 174.265625 294.3125 177.375 C292.06640625 179.359375 292.06640625 179.359375 288.875 181.125 C287.99871948 181.62459229 287.99871948 181.62459229 287.10473633 182.13427734 C285.83737755 182.85625156 284.56491287 183.56931973 283.28808594 184.27441406 C280.67340328 185.73103658 278.10562298 187.26119299 275.53417969 188.79248047 C273.43296431 190.03979339 271.32273397 191.27069637 269.2109375 192.5 C265.48644277 194.67379315 261.79178138 196.89354792 258.1015625 199.125 C255.94278408 200.41679327 253.78393032 201.70846062 251.625 203 C250.08332153 203.94286865 250.08332153 203.94286865 248.51049805 204.90478516 C247.5337915 205.48534668 246.55708496 206.0659082 245.55078125 206.6640625 C244.68493408 207.18693848 243.81908691 207.70981445 242.92700195 208.24853516 C239.80421541 209.59399572 237.67938181 209.7961147 234.3125 209.375 C232.96580803 207.76324485 231.62867622 206.14254312 230.34082031 204.48339844 C225.75807717 199.71972851 219.3893721 196.75925521 213.6875 193.5 C212.25032275 192.66528112 210.81405574 191.82899325 209.37866211 190.99121094 C207.17773463 189.70662686 204.9764189 188.42280245 202.77238464 187.14355469 C195.74857203 183.06476865 188.80599196 178.85895711 181.875 174.625 C173.20716438 169.34194795 164.52238086 164.08851538 155.8125 158.875 C147.68634615 154.01088891 139.5818447 149.11264387 131.49316406 144.18652344 C120.13586419 137.27034138 108.72687506 130.44685102 97.28347778 123.6741333 C87.71441738 118.00931413 78.18345394 112.28649922 68.6875 106.5 C58.7250621 100.43041395 48.72376979 94.43431261 38.6640625 88.52734375 C34.85467693 86.28998444 31.06067677 84.02854804 27.2734375 81.75390625 C25.77756104 80.85913574 25.77756104 80.85913574 24.25146484 79.94628906 C22.34542369 78.80564108 20.44193521 77.66071243 18.54150391 76.51074219 C10.73469441 71.85271334 3.54294836 68.48242606 -5.6875 70.375 C-10.73355027 72.72944885 -15.33132615 75.66514088 -20.01074219 78.671875 C-24.62230324 81.60604591 -29.30918397 84.41639606 -33.98626709 87.24450684 C-35.77004196 88.32463601 -37.55157434 89.40837639 -39.33251953 90.49316406 C-48.5154752 96.08356202 -57.74870821 101.58608864 -67 107.0625 C-78.97284897 114.15193694 -90.88962764 121.32577864 -102.76025391 128.58544922 C-108.2111161 131.9177945 -113.6662969 135.24301838 -119.125 138.5625 C-119.70527954 138.915401 -120.28555908 139.268302 -120.88342285 139.63189697 C-131.11902461 145.85239528 -141.41018835 151.97666275 -151.71798706 158.07659912 C-161.82782665 164.06043622 -171.89008282 170.11684802 -181.91439819 176.24282837 C-191.17407559 181.899823 -200.51445521 187.40263188 -209.96484375 192.7355957 C-220.50181717 198.55913663 -220.50181717 198.55913663 -226.6875 208.375 C-226.99218041 210.75522096 -226.99218041 210.75522096 -226.9659729 213.22822571 C-226.97713638 214.17748428 -226.98829987 215.12674286 -226.99980164 216.10476685 C-227.00196182 217.13407318 -227.00412201 218.16337952 -227.00634766 219.22387695 C-227.01639328 220.31700699 -227.0264389 221.41013702 -227.03678894 222.53639221 C-227.06765082 226.14534994 -227.08466469 229.75423336 -227.1015625 233.36328125 C-227.1202717 235.86720927 -227.13984492 238.37113098 -227.1602478 240.87504578 C-227.20635374 246.78931336 -227.24375264 252.7035953 -227.27692068 258.61794585 C-227.31893417 266.01424436 -227.37448893 273.4104308 -227.4296875 280.80664062 C-227.52648467 293.99603278 -227.6112538 307.18547385 -227.6875 320.375 C-232.05082441 318.97939712 -235.65387524 317.36975988 -239.5546875 314.953125 C-240.67673584 314.26387939 -241.79878418 313.57463379 -242.95483398 312.86450195 C-244.15747886 312.11814555 -245.3600322 311.37164164 -246.5625 310.625 C-249.06934774 309.07832887 -251.57898507 307.5362438 -254.08984375 305.99609375 C-254.72275833 305.60741623 -255.35567291 305.21873871 -256.00776672 304.81828308 C-260.19708936 302.25617244 -264.4245054 299.77850778 -268.69140625 297.34765625 C-269.77760254 296.72793945 -270.86379883 296.10822266 -271.98291016 295.46972656 C-274.02795982 294.30975278 -276.07819482 293.15885812 -278.13427734 292.01855469 C-284.80334035 288.22394741 -289.5766412 284.61469452 -292.6875 277.375 C-292.94476891 275.37744617 -292.94476891 275.37744617 -292.95492554 273.23408508 C-292.96345551 272.41700577 -292.97198547 271.59992645 -292.98077393 270.75808716 C-292.97986755 269.87023529 -292.97896118 268.98238342 -292.97802734 268.06762695 C-292.98474457 267.12564957 -292.99146179 266.18367218 -292.99838257 265.21315002 C-293.01739172 262.09647351 -293.02128869 258.98001215 -293.0234375 255.86328125 C-293.02986498 253.69337374 -293.0365933 251.52346709 -293.04360962 249.3535614 C-293.05559081 244.80152377 -293.05928973 240.24956206 -293.05810547 235.69750977 C-293.0579026 229.87806241 -293.08516833 224.05910514 -293.11964989 218.23977375 C-293.14194488 213.75548591 -293.14594215 209.27131535 -293.14488602 204.78697777 C-293.14723945 202.64247135 -293.15604839 200.49796158 -293.17155075 198.3535099 C-293.19125643 195.34511212 -293.18535369 192.33776217 -293.17333984 189.3293457 C-293.18457886 188.45161499 -293.19581787 187.57388428 -293.20739746 186.66955566 C-293.12919298 178.92106912 -291.03548062 172.39681459 -285.4375 166.875 C-281.24361428 163.51685237 -276.62971689 160.96610402 -271.92724609 158.40527344 C-264.83901098 154.53089956 -257.95301268 150.33697941 -251.0625 146.125 C-248.61643656 144.63190762 -246.16978042 143.13979072 -243.72265625 141.6484375 C-243.1215654 141.28210205 -242.52047455 140.9157666 -241.90116882 140.53833008 C-236.46187817 137.22828345 -230.98817093 133.97833584 -225.5 130.75 C-202.37250245 117.13762223 -179.44093284 103.19718453 -156.52664185 89.22981262 C-142.84282455 80.89013385 -129.11209175 72.63658857 -115.32275391 64.47244263 C-104.80612337 58.24496806 -94.34337236 51.93539609 -83.9140625 45.5625 C-76.42633197 40.98865944 -68.8960235 36.48618752 -61.3671875 31.98046875 C-58.46183942 30.23980102 -55.55885529 28.49523736 -52.65625 26.75 C-42.24613975 20.49216919 -31.82640357 14.25117537 -21.375 8.0625 C-20.45605957 7.51730713 -19.53711914 6.97211426 -18.59033203 6.41040039 C-17.73938965 5.90758545 -16.88844727 5.40477051 -16.01171875 4.88671875 C-15.27010498 4.44803467 -14.52849121 4.00935059 -13.7644043 3.55737305 C-9.00622478 0.84856108 -5.50304734 0.01029569 0 0 Z " fill="#026FFD" transform="translate(620.6875,283.625)"/>
<path d="M0 0 C0.09348666 22.02703999 0.16400049 44.05404721 0.20724869 66.08124542 C0.2278643 76.30911394 0.25596584 86.5368591 0.30175781 96.76464844 C0.34165614 105.6803297 0.36744009 114.59592161 0.37635398 123.51168966 C0.38156364 128.23152319 0.39378746 132.95110113 0.42292023 137.67085266 C0.45013664 142.11629438 0.45843244 146.56137603 0.45243073 151.00689316 C0.45352818 152.63546075 0.46144502 154.2640408 0.4768219 155.89253616 C0.61407865 171.1830335 0.61407865 171.1830335 -4 178 C-5.875 179.890625 -5.875 179.890625 -8 181.25 C-8.88171875 181.82105469 -9.7634375 182.39210938 -10.671875 182.98046875 C-15.71900333 186.04310413 -20.7739879 189.09186646 -25.84985352 192.10668945 C-32.2871855 195.93729935 -38.62973233 199.89750499 -44.9375 203.9375 C-52.15257645 208.55837738 -59.39428929 213.12835278 -66.6875 217.625 C-74.22080177 222.27060635 -81.72127182 226.9643401 -89.19921875 231.69848633 C-96.01777823 236.01486784 -102.85782918 240.29592152 -109.70458984 244.56738281 C-115.33444205 248.0811004 -120.96097687 251.60013381 -126.58813477 255.11816406 C-131.75758491 258.34972714 -136.928172 261.57943568 -142.1015625 264.8046875 C-151.76066882 270.82912525 -161.40330392 276.87654182 -171 283 C-181.61309307 289.7720006 -192.28437392 296.44850312 -202.96777344 303.10888672 C-207.98090546 306.23543428 -212.99024955 309.36803813 -218 312.5 C-219.99608463 313.74741042 -221.99217839 314.99480624 -223.98828125 316.2421875 C-229.04560625 319.40291268 -234.10141489 322.56605507 -239.15673828 325.72998047 C-242.14570084 327.59886458 -245.13723616 329.46357909 -248.12890625 331.328125 C-252.08754062 333.79724825 -256.03054625 336.2891728 -259.96484375 338.796875 C-261.85154967 339.98960362 -263.73826789 341.1823128 -265.625 342.375 C-266.48375732 342.92881348 -267.34251465 343.48262695 -268.22729492 344.05322266 C-276.20629969 349.07197748 -276.20629969 349.07197748 -281 349 C-282.63734436 347.914505 -282.63734436 347.914505 -284 346 C-284.38768005 343.0221405 -284.38768005 343.0221405 -284.40405273 339.32885742 C-284.41091599 338.65530716 -284.41777924 337.9817569 -284.42485046 337.28779602 C-284.44315745 335.06013932 -284.43927449 332.83318459 -284.43359375 330.60546875 C-284.43815499 329.0547106 -284.44346039 327.50395448 -284.44947815 325.95320129 C-284.45841782 322.70073241 -284.45597805 319.44850891 -284.44604492 316.19604492 C-284.43457679 312.03635936 -284.45472832 307.87752543 -284.48396206 303.71795177 C-284.5023512 300.51364288 -284.50202587 297.30953681 -284.49632454 294.10518837 C-284.49617153 292.57224651 -284.50219889 291.03929073 -284.51461601 289.50639915 C-284.52956981 287.35684034 -284.51881808 285.2088378 -284.50170898 283.05932617 C-284.50154282 281.83815598 -284.50137665 280.61698578 -284.50120544 279.35881042 C-283.79975503 274.65806548 -281.73264297 271.45453694 -278.10327148 268.40771484 C-277.44915283 268.01277832 -276.79503418 267.6178418 -276.12109375 267.2109375 C-275.37472656 266.75074219 -274.62835937 266.29054688 -273.859375 265.81640625 C-273.06015625 265.34074219 -272.2609375 264.86507813 -271.4375 264.375 C-269.71724203 263.32064834 -267.99719577 262.2659512 -266.27734375 261.2109375 C-264.96032471 260.41187988 -264.96032471 260.41187988 -263.61669922 259.59667969 C-259.54679339 257.11327009 -255.52501599 254.55527276 -251.5 252 C-249.91302384 250.99697893 -248.32578359 249.99437558 -246.73828125 248.9921875 C-245.95404785 248.49686523 -245.16981445 248.00154297 -244.36181641 247.49121094 C-242.02678644 246.01691251 -239.69120378 244.5434936 -237.35546875 243.0703125 C-228.89235585 237.73116745 -220.44001252 232.37559801 -212 227 C-202.78230923 221.12908453 -193.54839846 215.28443028 -184.3046875 209.45458984 C-182.01454836 208.00918211 -179.72580343 206.56159316 -177.4375 205.11328125 C-167.61376133 198.89751872 -157.76502622 192.72287413 -147.90356445 186.56713867 C-141.75779098 182.72903375 -135.62253883 178.87504949 -129.5 175 C-122.45153737 170.53990912 -115.38624408 166.10738064 -108.3125 161.6875 C-107.31694092 161.06439941 -106.32138184 160.44129883 -105.2956543 159.79931641 C-99.98013617 156.47493385 -94.65432689 153.16868129 -89.3125 149.88671875 C-88.22412842 149.21487549 -87.13575684 148.54303223 -86.0144043 147.85083008 C-83.93079767 146.56507877 -81.84387851 145.28467502 -79.75317383 144.01049805 C-70.68206293 138.59973857 -70.68206293 138.59973857 -65 130 C-64.81051239 127.09437765 -64.72997867 124.28443445 -64.74462891 121.37939453 C-64.74100845 120.51062683 -64.737388 119.64185913 -64.73365784 118.74676514 C-64.72676976 116.86213353 -64.7242573 114.977482 -64.72560501 113.09283829 C-64.72657043 110.10829434 -64.71362602 107.12411036 -64.69662476 104.13961792 C-64.6503572 95.65479317 -64.62574633 87.17000515 -64.61914062 78.68505859 C-64.61412401 73.49316804 -64.58986634 68.30165325 -64.55381393 63.10988998 C-64.54401943 61.13320039 -64.54168208 59.15645909 -64.54698563 57.17975235 C-64.55406169 54.41255838 -64.53676291 51.64648285 -64.51416016 48.87939453 C-64.52641884 47.65882858 -64.52641884 47.65882858 -64.53892517 46.41360474 C-64.46263346 41.15508803 -63.44450977 38.19574792 -60 34 C-58.15087891 32.51538086 -58.15087891 32.51538086 -56.2265625 31.46484375 C-55.49550293 31.05484131 -54.76444336 30.64483887 -54.01123047 30.22241211 C-53.22377441 29.79839111 -52.43631836 29.37437012 -51.625 28.9375 C-49.91070707 27.9805112 -48.19719661 27.02211969 -46.484375 26.0625 C-45.58783203 25.56492187 -44.69128906 25.06734375 -43.76757812 24.5546875 C-39.09046579 21.92731882 -34.48598054 19.17872753 -29.875 16.4375 C-28.03397538 15.34875334 -26.19283079 14.26020952 -24.3515625 13.171875 C-20.86263183 11.10650874 -17.37878066 9.03292492 -13.8984375 6.953125 C-13.11098145 6.48463135 -12.32352539 6.0161377 -11.51220703 5.53344727 C-10.03967702 4.65733481 -8.56918324 3.77778785 -7.10107422 2.89428711 C-2.22565457 0 -2.22565457 0 0 0 Z " fill="#022E61" transform="translate(919,479)"/>
<path d="M0 0 C1.6138916 1.10188293 1.6138916 1.10188293 3 3 C3.39440918 6.04032898 3.39440918 6.04032898 3.41992188 9.82299805 C3.42839142 10.51284286 3.43686096 11.20268768 3.44558716 11.91343689 C3.46900282 14.19638475 3.46997782 16.4786598 3.46875 18.76171875 C3.47585225 20.35252654 3.48355134 21.94333176 3.49182129 23.53413391 C3.50527898 26.87235624 3.50683068 30.2103421 3.50097656 33.54858398 C3.49509928 37.81133942 3.52558257 42.07294847 3.56609344 46.3354826 C3.59204937 49.62394748 3.5948404 52.91213994 3.59120178 56.20069313 C3.59288774 57.77107419 3.60247965 59.34146856 3.62034607 60.91174889 C3.78130452 76.81680854 3.78130452 76.81680854 -2 83 C-4.0078125 84.890625 -4.0078125 84.890625 -6.125 86.25 C-7.0015625 86.82234375 -7.878125 87.3946875 -8.78125 87.984375 C-10.37453125 88.98210937 -10.37453125 88.98210937 -12 90 C-13.34428114 90.85854393 -14.68798778 91.71798776 -16.03125 92.578125 C-23.91230406 97.60280227 -31.85283699 102.5332376 -39.78125 107.48266602 C-40.7815625 108.10713623 -41.781875 108.73160645 -42.8125 109.375 C-43.82441406 110.00656006 -44.83632813 110.63812012 -45.87890625 111.28881836 C-56.29339317 117.79538831 -66.6496556 124.39204761 -77 131 C-89.37889796 138.90303832 -101.78484856 146.75847825 -114.24511719 154.53271484 C-127.20668406 162.62054747 -140.11294708 170.79406505 -153 179 C-167.99054429 188.54535005 -183.02165367 198.02273967 -198.09716797 207.43334961 C-204.24272044 211.27125448 -210.37772785 215.12507773 -216.5 219 C-223.71434667 223.56549237 -230.94674648 228.10150709 -238.1875 232.625 C-239.20295898 233.25954102 -240.21841797 233.89408203 -241.26464844 234.54785156 C-245.82051565 237.39360719 -250.37815919 240.2364042 -254.94140625 243.0703125 C-255.67786377 243.52841309 -256.41432129 243.98651367 -257.1730957 244.45849609 C-258.50788986 245.28852561 -259.84359067 246.11709983 -261.18041992 246.94384766 C-263.61137009 248.45645375 -265.95700078 249.96578392 -268.19921875 251.75 C-271.04487759 253.72529464 -273.64202164 253.24421661 -277 253 C-277.99 252.67 -278.98 252.34 -280 252 C-281.45950539 249.08098922 -281.14346035 246.50292904 -281.16113281 243.24291992 C-281.16609772 242.54840225 -281.17106262 241.85388458 -281.17617798 241.13832092 C-281.19080841 238.83569352 -281.19760358 236.53313504 -281.203125 234.23046875 C-281.20887642 232.63104754 -281.21463416 231.03162636 -281.22039795 229.4322052 C-281.23091092 226.07548704 -281.23675141 222.71879286 -281.24023438 219.36206055 C-281.24571499 215.06454651 -281.2697323 210.76734997 -281.29820633 206.46993542 C-281.3168487 203.16448549 -281.32203919 199.85911172 -281.32357025 196.55361366 C-281.3265945 194.96960022 -281.33461538 193.38558804 -281.34775543 191.80162621 C-281.36484731 189.58259473 -281.36292827 187.36433461 -281.35644531 185.14526367 C-281.36009094 183.88332687 -281.36373657 182.62139008 -281.36749268 181.32121277 C-280.97040176 177.73250612 -280.13769277 175.87387663 -278 173 C-276.09326172 171.50537109 -276.09326172 171.50537109 -273.9296875 170.2734375 C-272.7223999 169.57081787 -272.7223999 169.57081787 -271.49072266 168.85400391 C-270.19593994 168.12189697 -270.19593994 168.12189697 -268.875 167.375 C-267.04546323 166.30971257 -265.21735869 165.24196197 -263.390625 164.171875 C-262.02067383 163.37233398 -262.02067383 163.37233398 -260.62304688 162.55664062 C-256.89233533 160.34265916 -253.25288407 158.00266347 -249.625 155.625 C-248.23969996 154.71987357 -246.85428036 153.81493008 -245.46875 152.91015625 C-244.75460937 152.44367676 -244.04046875 151.97719727 -243.3046875 151.49658203 C-238.93018789 148.65593769 -234.52679201 145.86059151 -230.125 143.0625 C-229.19059082 142.46840332 -228.25618164 141.87430664 -227.29345703 141.26220703 C-220.59596549 137.00734371 -213.88852364 132.76837279 -207.17749023 128.53491211 C-198.37580797 122.98015 -189.59848659 117.38721708 -180.8203125 111.79541016 C-177.98548536 109.99075998 -175.14921354 108.18840203 -172.3125 106.38671875 C-163.27064695 100.64233554 -154.24423135 94.87712034 -145.26049805 89.04223633 C-139.23488726 85.13572633 -133.16250729 81.30540596 -127.08520508 77.47998047 C-121.86569979 74.19021998 -116.67346791 70.8616346 -111.5 67.5 C-104.84316208 63.17603926 -98.14694165 58.91835376 -91.4309082 54.68701172 C-85.33968119 50.84877154 -79.26049297 46.99202337 -73.1875 43.125 C-72.27097656 42.54145752 -71.35445312 41.95791504 -70.41015625 41.35668945 C-67.60660521 39.57138619 -64.80326391 37.78575408 -62 36 C-36.43173242 19.71232972 -36.43173242 19.71232972 -25.5 12.84375 C-22.46160865 10.93224903 -19.44401739 8.99247219 -16.4375 7.03125 C-15.71030762 6.56235352 -14.98311523 6.09345703 -14.23388672 5.61035156 C-12.87025676 4.73073288 -11.51206708 3.84259691 -10.16064453 2.94433594 C-6.69757571 0.72628125 -4.14837674 -0.83834791 0 0 Z " fill="#022E61" transform="translate(916,680)"/>
<path d="M0 0 C4.21110873 0.32785449 7.27283377 2.08099631 10.875 4.1875 C11.4637793 4.53063232 12.05255859 4.87376465 12.65917969 5.22729492 C22.52052098 11.01444958 32.24983101 17.02844913 42 23 C44.28480144 24.39693239 46.56999469 25.79322185 48.85522461 27.18945312 C50.29107928 28.06681998 51.72678774 28.94442615 53.16235352 29.82226562 C61.12834409 34.69287462 69.10511123 39.54575626 77.08203125 44.3984375 C80.95597985 46.75527525 84.82833709 49.11469121 88.69921875 51.4765625 C98.61067332 57.52175605 108.54013404 63.53485617 118.5 69.5 C129.41677109 76.03825162 140.29466593 82.63826863 151.15722656 89.26611328 C155.9360543 92.18085346 160.7182346 95.09008275 165.5 98 C167.4205761 99.1692656 169.34114902 100.33853643 171.26171875 101.5078125 C175.0549371 103.81684 178.84928353 106.12399724 182.64453125 108.4296875 C192.84554739 114.62935572 203.02702805 120.85907828 213.1875 127.125 C225.12297772 134.4818268 237.126906 141.71709634 249.17382812 148.88964844 C252.55483502 150.90317802 255.93367608 152.92030999 259.3125 154.9375 C260.36896729 155.56470947 261.42543457 156.19191895 262.51391602 156.83813477 C277.6210148 165.86304441 277.6210148 165.86304441 279 170 C279.09481393 172.24857802 279.12794336 174.49991265 279.12939453 176.75048828 C279.13202301 177.77286087 279.13202301 177.77286087 279.13470459 178.81588745 C279.13910391 181.0673884 279.13619253 183.31881076 279.1328125 185.5703125 C279.13348593 187.13304662 279.13445629 188.69578064 279.13571167 190.2585144 C279.13718591 193.53189085 279.13504229 196.80524 279.13037109 200.07861328 C279.12466453 204.28333258 279.12796039 208.48798818 279.13394356 212.69270515 C279.13754852 215.91820765 279.13641105 219.14369491 279.13381577 222.36919785 C279.1331468 223.92021568 279.13397385 225.47123489 279.13629532 227.02225113 C279.1388218 229.18430525 279.13498179 231.34625451 279.12939453 233.50830078 C279.12820114 235.35671066 279.12820114 235.35671066 279.12698364 237.24246216 C279 240 279 240 278 241 C271.77038626 241.98929401 267.78511865 238.88605243 262.75 235.6875 C261.86739502 235.14206543 260.98479004 234.59663086 260.07543945 234.03466797 C258.25288484 232.90749958 256.43362946 231.77497948 254.61767578 230.63720703 C251.53902165 228.71168431 248.44053532 226.82051595 245.33813477 224.93359375 C243.13681753 223.59416131 240.93915593 222.24889586 238.7421875 220.90234375 C233.43844744 217.65394313 228.12575043 214.42031453 222.8125 211.1875 C221.84103027 210.59638428 220.86956055 210.00526855 219.86865234 209.39624023 C217.89031954 208.1925126 215.91196661 206.98881805 213.93359375 205.78515625 C211.09080043 204.05525406 208.24843801 202.32464649 205.40625 200.59375 C203.54167355 199.45832202 201.67709018 198.32290542 199.8125 197.1875 C198.87849365 196.61870117 197.9444873 196.04990234 196.98217773 195.46386719 C191.68014991 192.23619565 186.37503225 189.01368192 181.06640625 185.796875 C169.68226586 178.89725745 158.3134986 171.97693519 147.00683594 164.95068359 C136.76186624 158.59424382 126.44288921 152.3594319 116.13165283 146.11135864 C110.58301125 142.74870631 105.0409165 139.37536074 99.5 136 C88.14478991 129.0848471 76.78028257 122.18504347 65.4145813 115.28715515 C61.78305858 113.08295116 58.15234393 110.8774232 54.52232361 108.67074585 C52.10919397 107.20383028 49.69582375 105.73731075 47.28244019 104.27081299 C46.09899988 103.55155393 44.91566967 102.83211368 43.73245239 102.11248779 C37.86227628 98.54248864 31.98665488 94.98287695 26.078125 91.4765625 C25.17126953 90.93749268 24.26441406 90.39842285 23.33007812 89.84301758 C21.68538319 88.86737483 20.03847024 87.89545469 18.38867188 86.9284668 C9.36885057 81.57716973 0.97827543 76.5880325 -2 66 C-2.25396729 62.86224365 -2.25396729 62.86224365 -2.25878906 59.47558594 C-2.26509338 58.20116638 -2.27139771 56.92674683 -2.27789307 55.6137085 C-2.27431449 54.23726257 -2.27021282 52.86081793 -2.265625 51.484375 C-2.26697336 50.06284519 -2.26891533 48.64131583 -2.27142334 47.2197876 C-2.27436271 44.25097227 -2.27011276 41.28227779 -2.26074219 38.31347656 C-2.24930652 34.50458119 -2.25594036 30.69596641 -2.26788712 26.88708115 C-2.27510239 23.95662303 -2.27282007 21.02623188 -2.26763153 18.09577179 C-2.26629626 16.69071672 -2.26793848 15.2856556 -2.27259064 13.8806076 C-2.27765465 11.92268486 -2.26857124 9.96474079 -2.25878906 8.00683594 C-2.25719788 6.89242126 -2.25560669 5.77800659 -2.25396729 4.62982178 C-2 2 -2 2 0 0 Z " fill="#026EFD" transform="translate(330,688)"/>
<path d="M0 0 C5.82225468 0.12350237 9.9831547 3.12193527 14.75 6.125 C16.53769787 7.22487735 18.32683398 8.32241951 20.1171875 9.41796875 C21.06819336 10.0011084 22.01919922 10.58424805 22.99902344 11.18505859 C28.24113916 14.35540421 33.56005207 17.39140069 38.875 20.4375 C47.77162104 25.5494136 56.63465169 30.71192214 65.46044922 35.94506836 C73.12547055 40.4888092 80.81058109 44.99773889 88.5 49.5 C97.8819633 54.99415749 107.25342834 60.50546894 116.60888672 66.04467773 C123.63750864 70.20298924 130.68382852 74.33072518 137.73245239 78.45498657 C149.09607736 85.10494728 160.42358423 91.81051128 171.69775391 98.61132812 C185.81688738 107.12772592 199.98359257 115.5629249 214.16772461 123.97045898 C220.25431674 127.57949584 226.33677156 131.19423006 232.39453125 134.8515625 C233.32458984 135.41294922 234.25464844 135.97433594 235.21289062 136.55273438 C236.89419306 137.56960024 238.57398781 138.58896495 240.25195312 139.61132812 C240.97962891 140.05154297 241.70730469 140.49175781 242.45703125 140.9453125 C243.07553955 141.32187988 243.69404785 141.69844727 244.33129883 142.08642578 C246.16149997 143.15283118 246.16149997 143.15283118 249 144 C249 144.66 249 145.32 249 146 C249.76957031 146.19851563 250.53914062 146.39703125 251.33203125 146.6015625 C256.5115186 148.57627653 260.99616876 151.44735136 265.6875 154.375 C266.63689453 154.9525 267.58628906 155.53 268.56445312 156.125 C269.47517578 156.68960938 270.38589844 157.25421875 271.32421875 157.8359375 C272.15010498 158.34688965 272.97599121 158.8578418 273.8269043 159.38427734 C276.20082105 161.14931285 277.48135409 162.45739669 279 165 C279.36749268 168.08706665 279.36749268 168.08706665 279.35644531 171.75634766 C279.35848969 172.42671555 279.36053406 173.09708344 279.36264038 173.7877655 C279.36564114 175.99681142 279.34719601 178.20510569 279.328125 180.4140625 C279.32506647 181.95054947 279.32319106 183.48703922 279.32244873 185.02352905 C279.3178504 188.23975271 279.30344065 191.45572532 279.28125 194.671875 C279.25292039 198.7991322 279.24203319 202.92619217 279.2375679 207.05353737 C279.23341659 210.2241921 279.22360231 213.3948068 279.21169281 216.56544113 C279.2059877 218.08771824 279.20122979 219.60999921 279.19742584 221.13228226 C279.19056986 223.25573788 279.17694191 225.37903595 279.16113281 227.50244141 C279.15089081 229.31634872 279.15089081 229.31634872 279.14044189 231.16690063 C279 234 279 234 278 236 C272.65144472 236.50163437 269.35968989 234.91204587 264.94140625 232.16015625 C263.94209328 231.55958656 263.94209328 231.55958656 262.92259216 230.94688416 C260.79486732 229.66432231 258.67871367 228.36394844 256.5625 227.0625 C255.17586639 226.22209143 253.78850168 225.38288789 252.40039062 224.54492188 C249.62609343 222.86761793 246.85611274 221.18351919 244.08959961 219.4934082 C233.38921805 212.96045859 222.60432573 206.56784029 211.8125 200.1875 C200.51538502 193.50180191 189.24875247 186.7667463 178 180 C173.77153866 177.45715805 169.54238949 174.91546561 165.3125 172.375 C164.23895264 171.73022705 163.16540527 171.0854541 162.05932617 170.42114258 C156.28642263 166.95811037 150.50038541 163.52041454 144.6875 160.125 C137.92467726 156.17311411 131.23200694 152.10920473 124.54449463 148.03161621 C114.18822819 141.71732648 103.78809899 135.48943149 93.3125 129.375 C81.09337888 122.24249695 68.9423078 115.00308306 56.82373047 107.70068359 C52.55250446 105.12819869 48.27614084 102.56430329 44 100 C43.21665283 99.52973389 42.43330566 99.05946777 41.6262207 98.57495117 C36.89167801 95.73269412 32.15397151 92.89580006 27.4140625 90.0625 C26.28742188 89.38832031 25.16078125 88.71414063 24 88.01953125 C21.80020262 86.70321731 19.59971487 85.38805621 17.3984375 84.07421875 C0.20791846 73.78194645 0.20791846 73.78194645 -2 66 C-2.25396729 62.86224365 -2.25396729 62.86224365 -2.25878906 59.47558594 C-2.26509338 58.20116638 -2.27139771 56.92674683 -2.27789307 55.6137085 C-2.27431449 54.23726257 -2.27021282 52.86081793 -2.265625 51.484375 C-2.26697336 50.06284519 -2.26891533 48.64131583 -2.27142334 47.2197876 C-2.27436271 44.25097227 -2.27011276 41.28227779 -2.26074219 38.31347656 C-2.24930652 34.50458119 -2.25594036 30.69596641 -2.26788712 26.88708115 C-2.27510239 23.95662303 -2.27282007 21.02623188 -2.26763153 18.09577179 C-2.26629626 16.69071672 -2.26793848 15.2856556 -2.27259064 13.8806076 C-2.27765465 11.92268486 -2.26857124 9.96474079 -2.25878906 8.00683594 C-2.25719788 6.89242126 -2.25560669 5.77800659 -2.25396729 4.62982178 C-2 2 -2 2 0 0 Z " fill="#026EFD" transform="translate(330,591)"/>
<path d="M0 0 C3.04151251 1.52558405 5.92862585 3.21470704 8.8359375 4.984375 C9.4738623 5.37141602 10.11178711 5.75845703 10.76904297 6.15722656 C12.20447277 7.02891782 13.63881718 7.90239808 15.07226562 8.77734375 C17.65214462 10.35100665 20.23599577 11.91801128 22.8203125 13.484375 C33.08702221 19.71313931 43.32200914 25.99061214 53.5234375 32.32568359 C61.11402892 37.03397151 68.74244101 41.67894133 76.38476562 46.30273438 C81.13303598 49.1818226 85.86709088 52.08378867 90.578125 55.0234375 C91.48933105 55.5901416 92.40053711 56.1568457 93.33935547 56.74072266 C95.4609375 58.234375 95.4609375 58.234375 96.4609375 60.234375 C96.85681447 63.48575127 96.61241296 66.16015279 95.4609375 69.234375 C92.47600936 72.13911336 88.98566813 73.95688426 85.3359375 75.921875 C83.21439298 77.13593137 81.09331148 78.35079717 78.97265625 79.56640625 C77.8851709 80.17564941 76.79768555 80.78489258 75.67724609 81.41259766 C70.76305012 84.19609017 65.95963285 87.15262167 61.1484375 90.109375 C59.23987635 91.27131477 57.33101735 92.43276542 55.421875 93.59375 C49.02576501 97.49407698 42.64982816 101.42692481 36.2734375 105.359375 C25.99865781 111.69482737 15.70646918 118.00470251 5.29833984 124.11962891 C3.79505348 125.03166791 2.34669263 126.03368737 0.91796875 127.05859375 C-2.75195225 128.81478806 -5.63449569 129.15154978 -9.5390625 128.234375 C-14.01366674 126.11739968 -18.13113249 123.46778485 -22.2890625 120.796875 C-23.5230625 120.02316583 -24.75827604 119.25138913 -25.99462891 118.48144531 C-28.56470081 116.87876072 -31.12934852 115.26788883 -33.69042969 113.65087891 C-39.13992666 110.21844816 -44.64754996 106.88244772 -50.1574707 103.54821777 C-51.91041803 102.48658219 -53.66147701 101.42189316 -55.41210938 100.35644531 C-63.6998598 95.31732359 -72.03666028 90.3645494 -80.43896484 85.51855469 C-96.01840521 76.43538361 -96.01840521 76.43538361 -98.5390625 70.234375 C-98.97265625 67.11328125 -98.97265625 67.11328125 -98.9765625 63.796875 C-98.99589844 62.70503906 -99.01523437 61.61320313 -99.03515625 60.48828125 C-98.42513964 56.48714869 -97.39806025 54.0324597 -94.5390625 51.234375 C-90.75191568 48.4771036 -86.75999879 46.11162133 -82.7265625 43.734375 C-81.55497074 43.0308295 -80.38416402 42.32597518 -79.21411133 41.61987305 C-76.82106566 40.17803004 -74.42410407 38.74308191 -72.0234375 37.31396484 C-66.90167788 34.26246732 -61.81602964 31.15181421 -56.7265625 28.046875 C-55.79158936 27.47880127 -54.85661621 26.91072754 -53.89331055 26.32543945 C-48.32120601 22.93959356 -42.7661573 19.52773995 -37.22631836 16.08935547 C-34.61170922 14.46695332 -31.99352322 12.85044967 -29.375 11.234375 C-26.27996117 9.32219259 -23.20364174 7.38488255 -20.140625 5.421875 C-18.81525043 4.58830906 -17.48973908 3.75496055 -16.1640625 2.921875 C-15.58785156 2.54248779 -15.01164062 2.16310059 -14.41796875 1.7722168 C-9.55670613 -1.24667901 -5.45894694 -1.64608246 0 0 Z " fill="#3E8DFC" transform="translate(507.5390625,520.765625)"/>
<path d="M0 0 C6.0521287 2.866911 11.68838695 6.63284226 17.3125 10.25 C25.36862212 15.3859509 33.51173335 20.37020232 41.6875 25.3125 C50.9046125 30.8902834 60.10156044 36.4974689 69.25 42.1875 C70.21897217 42.78667236 71.18794434 43.38584473 72.1862793 44.00317383 C87.34589052 53.46706242 87.34589052 53.46706242 91 59 C91.46875 61.55078125 91.46875 61.55078125 91.5 64.3125 C91.5309375 65.21613281 91.561875 66.11976563 91.59375 67.05078125 C90.66811172 71.64852405 88.06866817 75.31683761 84.42306519 78.2830658 C82.67518647 79.42834801 80.89911621 80.47031836 79.07421875 81.48828125 C78.08477013 82.0651342 78.08477013 82.0651342 77.07533264 82.65364075 C74.95368909 83.88703562 72.82084854 85.09948632 70.6875 86.3125 C69.21219641 87.16669825 67.73791491 88.02266415 66.26464844 88.88037109 C63.41078531 90.54142396 60.55396306 92.19716857 57.69482422 93.84912109 C53.65830347 96.18934401 49.68345923 98.61550136 45.75 101.125 C37.19429754 106.55578656 28.51217728 111.77947053 19.84277344 117.02587891 C19.25921082 117.37956543 18.67564819 117.73325195 18.07440186 118.09765625 C16.38132249 119.12180357 14.68483714 120.14031349 12.98828125 121.15869141 C11.20695982 122.25629976 9.44502377 123.38817292 7.73046875 124.58740234 C2.76248332 128.05827192 -1.86657958 129.77937231 -8 129 C-11.97611084 127.4117585 -15.3893871 125.1900826 -18.9375 122.8125 C-19.93604004 122.1740918 -20.93458008 121.53568359 -21.96337891 120.87792969 C-24.00877979 119.56765063 -26.04726555 118.24651263 -28.07861328 116.91455078 C-32.31125164 114.14066226 -36.59366639 111.44781446 -40.875 108.75 C-41.6491626 108.25790039 -42.4233252 107.76580078 -43.22094727 107.25878906 C-48.88981398 103.66205697 -54.6422285 100.2342623 -60.44458008 96.85839844 C-68.88671435 91.93031357 -77.17106247 86.7492318 -85.46386719 81.57519531 C-87.90898022 80.0565325 -90.36279495 78.55317381 -92.8203125 77.0546875 C-93.93104126 76.3730957 -93.93104126 76.3730957 -95.06420898 75.67773438 C-96.44096156 74.83303485 -97.8205283 73.99289838 -99.20336914 73.15820312 C-102.22996213 71.29123508 -103.99552073 70.00671891 -106 67 C-105.9375 63.5625 -105.9375 63.5625 -105 60 C-101.63598094 56.93595717 -97.90923609 54.61820959 -94.01953125 52.27734375 C-93.4540155 51.93556595 -92.88849976 51.59378815 -92.30584717 51.24165344 C-90.47665353 50.13704564 -88.64457366 49.03732305 -86.8125 47.9375 C-85.53808651 47.16869788 -84.26391832 46.399489 -82.98999023 45.62988281 C-80.47006393 44.10783793 -77.94928307 42.58722657 -75.42773438 41.06787109 C-71.13010742 38.47698478 -66.84357304 35.86814001 -62.5625 33.25 C-61.52319336 32.6149353 -61.52319336 32.6149353 -60.46289062 31.96704102 C-54.731699 28.45954642 -49.02222408 24.91729486 -43.3125 21.375 C-36.56745922 17.19094006 -29.81477306 13.02233402 -22.98339844 8.98022461 C-20.33042815 7.41043943 -17.71559308 5.81272659 -15.140625 4.1171875 C-9.74768783 0.60360722 -6.46369227 -1.12858119 0 0 Z " fill="#66A2FB" transform="translate(746,520)"/>
<path d="M0 0 C4.61997918 2.07578335 8.85032629 4.73853797 13.125 7.4375 C14.34160496 8.18533525 15.55938893 8.93125569 16.77832031 9.67529297 C19.15371265 11.12867373 21.52268586 12.59159053 23.88574219 14.06494141 C27.48041573 16.29850855 31.10925196 18.46791246 34.75 20.625 C41.82405377 24.88073783 48.87746285 29.1706007 55.92358398 33.47241211 C61.10975586 36.6382972 66.30537544 39.78662969 71.51953125 42.90625 C72.57333984 43.53958252 73.62714844 44.17291504 74.71289062 44.82543945 C76.7436009 46.04536914 78.77735689 47.26024646 80.81445312 48.46948242 C82.1844043 49.2947644 82.1844043 49.2947644 83.58203125 50.13671875 C84.38874268 50.61842529 85.1954541 51.10013184 86.02661133 51.59643555 C88 53 88 53 90 56 C90.67424643 62.96721311 90.67424643 62.96721311 88.33984375 66.54296875 C85.77620922 69.234999 83.46339003 70.68847363 80.1875 72.4375 C78.92133671 73.13207227 77.65715375 73.83026174 76.39453125 74.53125 C75.69537598 74.91925781 74.9962207 75.30726563 74.27587891 75.70703125 C69.91583804 78.18405082 65.65116392 80.81923068 61.375 83.4375 C59.3893235 84.65104262 57.40364639 85.86458425 55.41796875 87.078125 C53.86408447 88.02848633 53.86408447 88.02848633 52.27880859 88.99804688 C47.02393685 92.20653148 41.75903306 95.39844732 36.49465942 98.59130859 C27.80295935 103.86354235 19.11425186 109.14069278 10.4375 114.4375 C9.71199951 114.87989014 8.98649902 115.32228027 8.23901367 115.77807617 C5.46034208 117.47632346 2.71000665 119.1933289 0 121 C-11.04330912 122.12304839 -19.69575637 114.86581077 -28.75 109.3125 C-29.98717552 108.55710948 -31.22456593 107.80207082 -32.4621582 107.04736328 C-35.03048055 105.48072932 -37.59787909 103.91259847 -40.16455078 102.34326172 C-45.58633482 99.029312 -51.01678586 95.72966767 -56.44839478 92.43185425 C-58.18356546 91.37739102 -59.91745282 90.320844 -61.65112305 89.26391602 C-67.47597905 85.71694874 -73.32208387 82.21321443 -79.2109375 78.7734375 C-80.37492184 78.08963793 -81.53874313 77.40556072 -82.70239258 76.72119141 C-84.88643908 75.43993067 -87.07612071 74.16821085 -89.2722168 72.90771484 C-90.24586182 72.3348877 -91.21950684 71.76206055 -92.22265625 71.171875 C-93.07609619 70.6778418 -93.92953613 70.18380859 -94.80883789 69.67480469 C-97.39369541 67.69908072 -98.6055553 65.92864256 -100 63 C-100.16043313 59.63090417 -100.23476414 57.99513481 -99 55 C-93.06247155 48.91463621 -84.52852727 44.99168675 -77.25 40.6875 C-75.24073196 39.49236509 -73.23249489 38.29551149 -71.22436523 37.09846497 C-69.85176311 36.2802732 -68.47887709 35.46255754 -67.10571289 34.64530945 C-60.79472675 30.88668954 -54.51718399 27.07432609 -48.24517822 23.25112915 C-7.79198126 -1.40377369 -7.79198126 -1.40377369 0 0 Z " fill="#026FFD" transform="translate(627,402)"/>
<path d="M0 0 C4.20523462 1.05130866 7.33811566 2.79492796 11 5 C11.71768555 5.42716309 12.43537109 5.85432617 13.17480469 6.29443359 C15.78807833 7.85497432 18.39461669 9.42632014 21 11 C22.09763672 11.66290039 23.19527344 12.32580078 24.32617188 13.00878906 C36.91695585 20.61904969 49.47838503 28.27634988 62 36 C62.92748047 36.57202148 63.85496094 37.14404297 64.81054688 37.73339844 C84.66086926 49.98533735 84.66086926 49.98533735 94 56 C92.86564177 59.40307469 92.46519397 59.61069284 89.51171875 61.3203125 C88.75681152 61.7644751 88.0019043 62.2086377 87.22412109 62.66625977 C85.96849365 63.38833618 85.96849365 63.38833618 84.6875 64.125 C82.86002812 65.19811435 81.0332447 66.27240171 79.20703125 67.34765625 C78.21268066 67.93047363 77.21833008 68.51329102 76.19384766 69.11376953 C70.99788096 72.18241642 65.84426298 75.32043775 60.6897583 78.45800781 C58.86587773 79.56805196 57.0412001 80.67677497 55.21630859 81.78515625 C49.43901721 85.29485442 43.66637421 88.81199374 37.90283203 92.34423828 C34.27216929 94.56877189 30.63713251 96.78606225 27 99 C25.96020996 99.63309082 24.92041992 100.26618164 23.84912109 100.91845703 C20.97531934 102.66651125 18.09805786 104.40876832 15.21884155 106.14788818 C13.52669289 107.17135526 11.83717593 108.19916938 10.14770508 109.22705078 C9.1192749 109.84692871 8.09084473 110.46680664 7.03125 111.10546875 C6.10892578 111.66387451 5.18660156 112.22228027 4.23632812 112.79760742 C2 114 2 114 0 114 C0 76.38 0 38.76 0 0 Z " fill="#408EFC" transform="translate(631,605)"/>
<path d="M0 0 C0 37.62 0 75.24 0 114 C-3.33835695 112.66465722 -5.95813394 111.54929347 -8.94921875 109.7421875 C-9.70041992 109.29029053 -10.45162109 108.83839355 -11.22558594 108.37280273 C-12.03801758 107.87852783 -12.85044922 107.38425293 -13.6875 106.875 C-14.56051758 106.347854 -15.43353516 105.82070801 -16.33300781 105.27758789 C-24.41665485 100.38422082 -32.44808983 95.40626321 -40.48535156 90.43725586 C-50.90611156 84.01588442 -61.42907545 77.77059595 -71.97558594 71.55834961 C-79.40797668 67.17436096 -86.758419 62.69614691 -94 58 C-92.69786201 54.09358602 -91.26276005 53.69755366 -87.734375 51.6640625 C-86.62755371 51.01880615 -85.52073242 50.3735498 -84.38037109 49.70874023 C-83.78891296 49.36930389 -83.19745483 49.02986755 -82.58807373 48.68014526 C-79.47281268 46.89183129 -76.37451526 45.07447649 -73.2734375 43.26171875 C-72.64897736 42.89782547 -72.02451721 42.53393219 -71.38113403 42.15901184 C-65.987575 39.01065553 -60.66942773 35.74983122 -55.375 32.4375 C-46.68793966 27.01705803 -37.92705778 21.72794089 -29.13598633 16.47802734 C-24.23422017 13.54870335 -19.34240101 10.60689622 -14.484375 7.60546875 C-13.64737061 7.08871582 -12.81036621 6.57196289 -11.94799805 6.03955078 C-10.39757583 5.07956159 -8.8494238 4.11589277 -7.30395508 3.14794922 C-2.21866658 0 -2.21866658 0 0 0 Z " fill="#036EFC" transform="translate(613,605)"/>
<path d="M0 0 C3.6165481 0.66658362 6.2722586 2.19950934 9.40234375 4.09765625 C10.45873047 4.73509766 11.51511719 5.37253906 12.60351562 6.02929688 C13.70373047 6.70025391 14.80394531 7.37121094 15.9375 8.0625 C17.53561523 9.02833008 17.53561523 9.02833008 19.16601562 10.01367188 C25.69865388 13.96794838 32.20201426 17.96913575 38.70288086 21.9753418 C42.64444511 24.39573367 46.59635726 26.79872652 50.55607605 29.18927002 C53.54675425 30.99561996 56.52801758 32.81504251 59.49511719 34.65991211 C64.6772076 37.86937594 69.77860155 41.01588926 75.37109375 43.48046875 C83.79081243 47.35946708 83.79081243 47.35946708 86 51 C87.81510555 58.87616184 86.98698204 67.05289652 86 75 C75.88171478 69.73714224 66.29386235 63.66149561 56.62207031 57.62988281 C52.86508417 55.29453463 49.09045592 52.9887177 45.3125 50.6875 C36.59353382 45.37249326 27.89903804 40.0179012 19.20825195 34.65698242 C18.15984131 34.01092041 17.11143066 33.3648584 16.03125 32.69921875 C15.0211084 32.06306641 14.0109668 31.42691406 12.97021484 30.77148438 C10.05066321 28.96334889 10.05066321 28.96334889 7.01806641 27.60351562 C4.27477259 26.26996328 2.17061502 25.14659354 0 23 C-1.192946 18.97211912 -0.9575797 15.27968796 -0.625 11.125 C-0.57988281 10.05507813 -0.53476562 8.98515625 -0.48828125 7.8828125 C-0.37071947 5.24942873 -0.20682479 2.6276294 0 0 Z " fill="#0973FB" transform="translate(527,489)"/>
<path d="M0 0 C1.69321544 7.62247517 2.85162284 15.54882654 0 23 C-5.92108469 29.60770252 -14.59353364 33.3067354 -22.45117188 37.19433594 C-27.76002271 39.89550963 -32.76552366 43.03183002 -37.8125 46.1875 C-39.69129104 47.33305686 -41.57149029 48.47630752 -43.453125 49.6171875 C-49.0014099 52.9965264 -54.53648564 56.39687303 -60.0625 59.8125 C-60.92568848 60.34601074 -61.78887695 60.87952148 -62.67822266 61.42919922 C-69.00831464 65.35514985 -75.26591757 69.38210686 -81.48046875 73.48828125 C-84 75 -84 75 -86 75 C-86.14528105 71.25040783 -86.23406281 67.50153895 -86.3125 63.75 C-86.35439453 62.68652344 -86.39628906 61.62304688 -86.43945312 60.52734375 C-86.45556641 59.50253906 -86.47167969 58.47773437 -86.48828125 57.421875 C-86.51446533 56.47924805 -86.54064941 55.53662109 -86.56762695 54.56542969 C-85.57467258 50.07770299 -81.92602915 48.60017048 -78.25878906 46.22338867 C-76.77717285 45.32970581 -76.77717285 45.32970581 -75.265625 44.41796875 C-74.14712158 43.7410498 -73.02861816 43.06413086 -71.8762207 42.36669922 C-70.66754018 41.64020014 -69.45879837 40.913803 -68.25 40.1875 C-66.99096278 39.42752231 -65.7320948 38.6672642 -64.47338867 37.90673828 C-60.6519308 35.59948423 -56.82624454 33.29930425 -53 31 C-51.89285645 30.33403809 -50.78571289 29.66807617 -49.64501953 28.98193359 C-43.49332329 25.28258355 -37.33657795 21.59173229 -31.17773438 17.90429688 C-27.76784115 15.86087592 -24.360222 13.81370304 -20.953125 11.765625 C-19.7886663 11.06590016 -18.62419703 10.36619292 -17.4597168 9.66650391 C-15.23691836 8.33074821 -13.014413 6.99450466 -10.79223633 5.65771484 C-9.7998999 5.06168457 -8.80756348 4.4656543 -7.78515625 3.8515625 C-6.90738525 3.32385254 -6.02961426 2.79614258 -5.12524414 2.25244141 C-1.30311891 0 -1.30311891 0 0 0 Z " fill="#207EFD" transform="translate(717,489)"/>
<path d="M0 0 C2.0625 0.4375 2.0625 0.4375 4 1 C3.01 2.485 3.01 2.485 2 4 C1.67299844 6.28090744 1.67299844 6.28090744 1.68115234 8.83862305 C1.66128265 9.8194133 1.64141296 10.80020355 1.62094116 11.81071472 C1.60938995 12.86704605 1.59783875 13.92337738 1.5859375 15.01171875 C1.56657135 16.09508011 1.5472052 17.17844147 1.5272522 18.29463196 C1.46741656 21.75884093 1.4210547 25.22308305 1.375 28.6875 C1.33682393 31.03451979 1.29777242 33.38152552 1.2578125 35.72851562 C1.16171176 41.48555234 1.07667587 47.24267359 1 53 C0.67 53 0.34 53 0 53 C-0.16781282 45.61285555 -0.32777871 38.22557168 -0.48217773 30.83813477 C-0.53568866 28.32279574 -0.59102469 25.80749488 -0.64819336 23.29223633 C-0.72985135 19.68579339 -0.8050364 16.07926604 -0.87890625 12.47265625 C-0.90594131 11.34038101 -0.93297638 10.20810577 -0.96083069 9.04151917 C-0.98092697 8.00051559 -1.00102325 6.95951202 -1.02172852 5.88696289 C-1.04171402 4.96540909 -1.06169952 4.04385529 -1.08229065 3.09437561 C-1 1 -1 1 0 0 Z " fill="#0876FD" transform="translate(330,688)"/>
<path d="M0 0 C0 0.66 0 1.32 0 2 C-0.99 2 -1.98 2 -3 2 C-3.33 2.99 -3.66 3.98 -4 5 C-7.91031269 7.64951093 -12.30943359 9.4136792 -17 10 C-14.38772848 7.04185281 -11.33429693 5.28123892 -7.9375 3.3125 C-6.87402344 2.68988281 -5.81054688 2.06726563 -4.71484375 1.42578125 C-2 0 -2 0 0 0 Z " fill="#2C82FB" transform="translate(594,296)"/>
<path d="M0 0 C0.99 0.66 1.98 1.32 3 2 C0.34771188 3.07525194 -2.28368454 4.09456151 -5 5 C-5.33 5.99 -5.66 6.98 -6 8 C-8.5625 9.1875 -8.5625 9.1875 -11 10 C-11.66 9.34 -12.32 8.68 -13 8 C-8.71 5.36 -4.42 2.72 0 0 Z " fill="#193567" transform="translate(782,762)"/>
<path d="M0 0 C0.66 0.66 1.32 1.32 2 2 C-1.06117568 4.62386487 -1.73173127 5 -6 5 C-6.33 5.99 -6.66 6.98 -7 8 C-7.99 7.34 -8.98 6.68 -10 6 C-6.7 4.02 -3.4 2.04 0 0 Z " fill="#1A386B" transform="translate(728,693)"/>
<path d="M0 0 C2.0625 0.4375 2.0625 0.4375 4 1 C3.01 2.485 3.01 2.485 2 4 C1.54398739 6.50896686 1.54398739 6.50896686 1.375 9.1875 C1.30023438 10.08855469 1.22546875 10.98960937 1.1484375 11.91796875 C1.09945313 12.60503906 1.05046875 13.29210937 1 14 C0.67 14 0.34 14 0 14 C-0.19393875 11.85473901 -0.37998676 9.70876323 -0.5625 7.5625 C-0.71912109 5.77005859 -0.71912109 5.77005859 -0.87890625 3.94140625 C-0.91886719 2.97074219 -0.95882813 2.00007812 -1 1 C-0.67 0.67 -0.34 0.34 0 0 Z " fill="#1577FA" transform="translate(330,688)"/>
<path d="M0 0 C2.0625 0.4375 2.0625 0.4375 4 1 C3.34 1.66 2.68 2.32 2 3 C1.53513282 6.12196336 1.53513282 6.12196336 1.375 9.625 C1.30023438 10.81351563 1.22546875 12.00203125 1.1484375 13.2265625 C1.09945313 14.14179687 1.05046875 15.05703125 1 16 C0.67 16 0.34 16 0 16 C-0.19389096 13.5211787 -0.38040123 11.04219069 -0.5625 8.5625 C-0.61857422 7.85544922 -0.67464844 7.14839844 -0.73242188 6.41992188 C-0.86190993 4.61572163 -0.93521608 2.80768048 -1 1 C-0.67 0.67 -0.34 0.34 0 0 Z " fill="#0E78FC" transform="translate(330,591)"/>
<path d="M0 0 C1.00289062 0.10183594 2.00578125 0.20367188 3.0390625 0.30859375 C3.80992187 0.39238281 4.58078125 0.47617187 5.375 0.5625 C2.76795102 3.16954898 0.90161759 2.80155333 -2.65234375 2.828125 C-4.625 2.5625 -4.625 2.5625 -7.625 0.5625 C-4.89657939 -0.80171031 -3.01546682 -0.31557211 0 0 Z " fill="#3387FB" transform="translate(623.625,520.4375)"/>
<path d="M0 0 C0.66 0.33 1.32 0.66 2 1 C-1.07999946 4.67230705 -3.2482602 5.56802365 -8 6 C-5.38485683 3.87961365 -2.80362384 1.86908256 0 0 Z " fill="#358BFC" transform="translate(695,501)"/>
<path d="M0 0 C0.99 0.33 1.98 0.66 3 1 C-1.30769231 4.93846154 -1.30769231 4.93846154 -4.8125 5.25 C-5.534375 5.1675 -6.25625 5.085 -7 5 C-2.25 1.125 -2.25 1.125 0 0 Z " fill="#1F7DFB" transform="translate(552,320)"/>
<path d="M0 0 C0.33 0 0.66 0 1 0 C1 2.97 1 5.94 1 9 C-1.475 8.01 -1.475 8.01 -4 7 C-3.67 6.34 -3.34 5.68 -3 5 C-2.34 5 -1.68 5 -1 5 C-0.67 3.35 -0.34 1.7 0 0 Z " fill="#1C7BFC" transform="translate(612,710)"/>
</svg>
